<?xml version="1.0" standalone="no"?>
<!DOCTYPE svg PUBLIC "-//W3C//DTD SVG 20010904//EN"
 "http://www.w3.org/TR/2001/REC-SVG-20010904/DTD/svg10.dtd">
<svg version="1.0" xmlns="http://www.w3.org/2000/svg"
 width="254.000000pt" height="231.000000pt" viewBox="0 0 254.000000 231.000000"
 preserveAspectRatio="xMidYMid meet">

<g transform="translate(0.000000,231.000000) scale(0.100000,-0.100000)"
fill="#000000" stroke="none">
<path d="M677 1976 c-96 -35 -180 -129 -198 -218 -5 -24 -8 -295 -8 -603 l0
-560 23 -50 c31 -67 68 -110 125 -143 46 -27 48 -27 271 -32 218 -6 226 -7
263 -30 45 -30 77 -91 77 -148 l0 -42 50 0 50 0 0 38 c0 46 36 119 71 145 40
29 97 36 297 37 162 0 187 2 226 20 53 26 99 70 134 129 14 25 30 49 35 52 5
4 5 8 1 10 -5 2 -7 262 -4 582 3 319 2 581 -2 584 -5 2 -8 14 -8 27 0 27 -47
102 -86 137 -16 14 -49 37 -74 52 -46 25 -46 25 -265 24 -207 -2 -223 -3 -270
-25 -27 -13 -62 -35 -77 -49 l-27 -25 -33 31 c-18 17 -39 31 -46 31 -7 0 -10
5 -6 12 4 7 3 8 -5 4 -6 -4 -19 -2 -28 6 -24 20 -434 23 -486 4z m481 -124
c18 -13 41 -41 52 -62 19 -38 20 -61 20 -708 l0 -669 -52 26 c-51 25 -61 26
-273 31 -210 5 -221 6 -251 28 -16 13 -39 37 -50 55 -18 30 -19 59 -22 577 -2
300 0 569 3 598 5 40 15 62 38 89 53 60 68 63 297 60 197 -2 206 -3 238 -25z
m737 5 c22 -12 50 -40 62 -62 l23 -40 -3 -592 c-2 -580 -2 -592 -23 -619 -50
-67 -54 -68 -297 -74 -203 -5 -226 -8 -266 -28 -25 -12 -48 -22 -53 -22 -12 0
-10 1298 2 1339 12 41 54 88 95 107 22 10 84 13 225 13 184 1 197 -1 235 -22z"/>
</g>
</svg>
